<svg id="Слой_1" data-name="Слой 1" xmlns="http://www.w3.org/2000/svg" viewBox="0 0 183.76 42.76"><defs><style>.cls-1{fill:#573b89;}.cls-2{fill:#fdd900;}</style></defs><path class="cls-1" d="M15.91,9.55H10.54L0,33.28H5.57L7.64,28.2H18.71l2.07,5.08h5.8ZM9.47,24l3.83-9L17,24Z"/><path class="cls-1" d="M39.69,9.55H29V33.28h5.46V26.73h5.65s9.31,0,9.31-8.43C49.45,9.55,39.69,9.55,39.69,9.55Zm-.2,12.7h-5V14.13h5s4.54,0,4.54,4.08-4.51,4-4.51,4Z"/><rect class="cls-1" x="53.36" y="9.55" width="5.53" height="23.72"/><polygon class="cls-2" points="65.61 9.55 71.56 9.55 88.98 33.28 82.71 33.28 65.61 9.55"/><polygon class="cls-2" points="89.09 0 95.28 0 64.6 42.21 62.47 37.2 89.09 0"/><polygon class="cls-2" points="59.96 37.7 61.87 42.72 2.27 42.76 0 37.7 59.96 37.7"/><path class="cls-1" d="M106,9.55H94.1V33.28H106s12-.42,12-11.83S106,9.55,106,9.55Zm0,19.15H99.68V14.13H106s6.35.2,6.35,7.25a6.78,6.78,0,0,1-6.21,7.3H106Z"/><path class="cls-1" d="M126.88,33.28h-5.23V15h5.07v2.49a5.75,5.75,0,0,1,2.43-2,11.81,11.81,0,0,1,3.81-.73V19.6s-2.87-.37-4.39.9c-1.25,1-1.64,3.62-1.64,3.62Z"/><rect class="cls-1" x="136.08" y="14.96" width="5.3" height="18.32"/><ellipse class="cls-1" cx="138.73" cy="9.63" rx="3.32" ry="3"/><polygon class="cls-1" points="143.49 14.96 151.19 33.28 156.59 33.28 164.35 14.96 159.24 14.96 154.02 27.4 148.98 14.96 143.49 14.96"/><path class="cls-1" d="M183.76,24a9.21,9.21,0,0,0-9.1-9.32h-.37a9.32,9.32,0,0,0-9.69,8.9v.49c0,6.51,5.27,9.31,10.51,9.31s7.35-2.89,7.35-2.89l-2.84-3.11a5.63,5.63,0,0,1-4.31,1.82c-4.82,0-5.43-3.68-5.43-3.68h13.75S183.76,24.4,183.76,24Zm-13.92-1.47a4.46,4.46,0,0,1,4.46-3.8,4.34,4.34,0,0,1,4.45,3.8Z"/></svg>