<svg width="560" height="107" viewBox="0 0 560 107" fill="none" xmlns="http://www.w3.org/2000/svg">
<g clip-path="url(#clip0_1125_294)">
<path d="M492.244 46.7098C494.156 44.3522 496.571 42.4585 499.31 41.1695C502.049 39.8805 505.041 39.2293 508.065 39.2644C511.088 39.2994 514.065 40.0198 516.774 41.372C519.483 42.7242 521.854 44.6733 523.711 47.0746L524.617 46.1261C527.773 42.4481 532.158 40.0602 536.943 39.4136C541.35 38.6258 545.891 39.2113 549.958 41.0917C552.453 42.2125 554.654 43.9043 556.385 46.0325C558.116 48.1606 559.329 50.6661 559.927 53.3494C560.518 55.7355 560.811 58.1866 560.797 60.6457C560.797 68.6715 560.797 76.7339 560.797 84.7598C560.797 85.1975 560.797 85.6353 560.797 86.1096C560.779 86.5361 560.677 86.9547 560.497 87.3415C560.318 87.7283 560.064 88.0757 559.751 88.3637C559.438 88.6517 559.071 88.8748 558.672 89.0201C558.273 89.1654 557.85 89.2301 557.426 89.2105C555.372 89.2105 553.305 89.2105 551.227 89.2105C550.779 89.2312 550.331 89.1577 549.912 88.9946C549.494 88.8314 549.114 88.5822 548.797 88.2629C548.48 87.9436 548.232 87.5613 548.07 87.1402C547.908 86.7192 547.835 86.2688 547.855 85.8177C547.855 83.8842 547.855 81.8777 547.855 79.9442V61.3023C547.894 59.2677 547.485 57.2497 546.659 55.3924C545.757 53.5513 544.278 52.0606 542.449 51.1506C540.621 50.2406 538.546 49.962 536.544 50.3579C534.064 50.5258 531.741 51.6444 530.055 53.4836C528.369 55.3227 527.448 57.7424 527.481 60.2444C527.481 62.6521 527.481 65.0964 527.481 67.5406V83.9207C527.518 84.6012 527.518 85.2831 527.481 85.9636C527.463 86.7864 527.127 87.5697 526.545 88.1482C525.964 88.7268 525.181 89.0553 524.364 89.0646C522.188 89.0646 520.013 89.0646 517.838 89.0646C517.376 89.0734 516.917 88.982 516.492 88.7966C516.068 88.6113 515.688 88.3363 515.379 87.9903C515.069 87.6443 514.838 87.2354 514.699 86.7913C514.56 86.3472 514.518 85.8783 514.575 85.4164C514.575 80.9292 514.575 76.442 514.575 71.9184C514.575 68.2702 514.575 64.6221 514.575 60.974C514.645 58.721 514.146 56.487 513.125 54.4803C512.072 52.8508 510.55 51.5832 508.762 50.8467C506.975 50.1101 505.006 49.9397 503.12 50.3579C500.502 50.5721 498.075 51.8207 496.37 53.8306C494.665 55.8406 493.82 58.4483 494.02 61.0834C494.02 68.8175 494.02 76.5515 494.02 84.2855C494.057 84.8686 494.057 85.4535 494.02 86.0366C493.993 86.8468 493.658 87.6156 493.085 88.1855C492.512 88.7553 491.744 89.0829 490.939 89.101C488.739 89.101 486.492 89.101 484.196 89.101C483.378 89.0737 482.6 88.7344 482.021 88.1518C481.442 87.5693 481.105 86.7871 481.078 85.9636C481.078 85.4164 481.078 84.8692 481.078 84.2855V43.8643C481.078 41.1282 482.311 39.9243 485.066 39.8513C486.226 39.8513 487.386 39.8513 488.691 39.8513C489.653 39.8513 490.575 40.2357 491.255 40.9199C491.934 41.604 492.316 42.5319 492.316 43.4995C492.316 44.4115 492.316 45.3235 492.316 46.2356H492.534" fill="#3C373E"/>
<path d="M384.429 62.1412C384.596 61.8093 384.79 61.4921 385.009 61.1927C390.483 55.0639 395.885 48.935 401.431 42.7332C402.188 41.7666 403.168 41.0016 404.287 40.5054C405.406 40.0093 406.629 39.7972 407.848 39.8877C409.588 39.8877 411.473 39.8877 413.141 39.8877H413.467C414.591 39.8877 415.787 39.8877 416.295 41.1645C416.802 42.4413 416.041 43.2804 415.316 44.1195C410.096 49.8106 404.851 55.4773 399.582 61.1197C399.22 61.521 398.93 61.9223 398.531 62.3236C400.815 65.2786 403.026 68.1606 405.31 71.0426C408.936 75.6758 412.561 80.2724 416.186 84.9055C416.875 85.7811 417.672 86.6931 417.092 87.897C416.512 89.1009 415.28 89.1009 414.083 89.1009H407.232C406.2 89.1573 405.17 88.9453 404.243 88.4853C403.316 88.0252 402.523 87.3326 401.939 86.4742L390.012 70.5319L388.852 69.0362C387.257 70.7508 385.807 72.283 384.356 73.9247C384.171 74.2706 384.096 74.6651 384.139 75.0556C384.139 78.3754 384.139 81.6587 384.139 84.9785C384.139 88.2983 382.943 89.1009 380.006 89.1009H375.221C372.502 89.1009 371.197 87.7875 371.197 85.0879C371.197 81.6587 371.197 78.2295 371.197 74.7637V25.4046C371.197 22.2307 372.031 21.1728 375.185 20.5526C376.997 20.1513 378.81 19.8595 380.586 19.5676C381.005 19.4512 381.445 19.4322 381.872 19.5122C382.299 19.5921 382.703 19.7688 383.052 20.029C383.401 20.2891 383.687 20.6258 383.888 21.0136C384.089 21.4014 384.2 21.8301 384.211 22.2672C384.248 22.9112 384.248 23.5567 384.211 24.2007V61.8129C384.323 61.9615 384.474 62.0753 384.646 62.1412" fill="#3C373E"/>
<path d="M447.544 90.925C436.669 90.7426 428.294 87.0944 422.929 77.9376C419.986 72.7443 418.947 66.6765 419.993 60.7915C420.821 54.6938 423.917 49.1396 428.657 45.2504C432.442 42.081 437.043 40.057 441.925 39.4134C446.664 38.6711 451.513 39.1351 456.028 40.7632C459.599 41.9226 462.846 43.9199 465.499 46.5903C468.153 49.2607 470.138 52.5277 471.29 56.1219C472.817 60.2557 473.263 64.7154 472.584 69.0724C471.904 73.4295 470.123 77.5376 467.411 81.0021C463.941 85.56 458.964 88.7175 453.381 89.9035C451.242 90.3778 449.031 90.6331 447.544 90.852V90.925ZM446.602 50.3578C442.985 50.2394 439.469 51.5654 436.82 54.0463C434.171 56.5273 432.605 59.9619 432.463 63.6005C432.183 65.5315 432.308 67.5003 432.831 69.3795C433.354 71.2587 434.264 73.0063 435.501 74.5092C436.738 76.0121 438.275 77.2368 440.013 78.1039C441.75 78.971 443.649 79.4612 445.587 79.5428C447.429 79.6668 449.276 79.4121 451.017 78.7941C452.758 78.1761 454.356 77.2078 455.712 75.9482C457.069 74.6887 458.157 73.1642 458.909 71.4678C459.661 69.7715 460.062 67.9387 460.088 66.0812C460.344 64.1363 460.188 62.1588 459.63 60.2789C459.072 58.3989 458.125 56.6591 456.851 55.1739C455.578 53.6887 454.006 52.4916 452.239 51.6616C450.473 50.8315 448.551 50.3872 446.602 50.3578Z" fill="#3C373E"/>
<path d="M237.135 90.9251C230.47 90.8367 224.05 88.3818 219.009 83.9936C216.281 81.5828 214.123 78.5889 212.693 75.231C211.263 71.8731 210.597 68.2359 210.743 64.5856C210.735 61.3177 211.372 58.0807 212.617 55.0623C213.862 52.044 215.689 49.3041 217.994 47.0016C221.475 43.4079 225.944 40.9433 230.827 39.9243C237.043 38.4653 243.566 39.1461 249.352 41.8578C252.715 43.3644 255.685 45.6338 258.031 48.4881C260.377 51.3425 262.035 54.7044 262.874 58.3108C263.83 61.8032 264.037 65.4602 263.481 69.0391C262.924 72.618 261.618 76.0369 259.648 79.0686C257.938 81.7931 255.703 84.1456 253.076 85.9876C250.448 87.8296 247.481 89.1238 244.349 89.7941C241.92 90.3413 239.455 90.5602 237.099 90.9251H237.135ZM223.431 64.9504V66.5191C223.431 67.0298 223.431 67.5041 223.685 68.0148C224.024 70.4428 225.042 72.7236 226.622 74.5907C228.201 76.4577 230.276 77.8337 232.603 78.5579C234.971 79.4704 237.551 79.677 240.032 79.1529C242.514 78.6289 244.793 77.3964 246.597 75.6029C248.364 73.8744 249.664 71.7213 250.374 69.3468C251.085 66.9723 251.182 64.4548 250.657 62.0319C250.127 58.5212 248.272 55.3515 245.478 53.1828C242.684 51.0142 239.166 50.0137 235.657 50.3899C232.149 50.766 228.919 52.4897 226.642 55.202C224.364 57.9144 223.214 61.4062 223.431 64.9504Z" fill="#3C373E"/>
<path d="M282.958 46.3086C284.693 44.7196 286.508 43.2219 288.396 41.8214C292.129 39.568 296.533 38.7152 300.831 39.4136C304.306 39.7136 307.631 40.9763 310.437 43.0618C314.362 46.0129 316.969 50.4059 317.688 55.283C318.022 56.99 318.204 58.7237 318.232 60.4633C318.232 68.5257 318.232 76.6245 318.232 84.6869C318.267 85.1361 318.267 85.5874 318.232 86.0367C318.213 86.8498 317.881 87.6238 317.306 88.1955C316.731 88.7672 315.958 89.0919 315.15 89.1011C313.011 89.1011 310.909 89.1011 308.77 89.1011C307.924 89.1011 307.112 88.7629 306.514 88.1608C305.916 87.5588 305.58 86.7422 305.58 85.8908C305.58 83.9937 305.58 82.2426 305.58 80.1997V61.3024C305.641 59.3123 305.27 57.3327 304.492 55.5019C303.517 53.5996 301.953 52.0686 300.037 51.1405C298.12 50.2124 295.955 49.9377 293.87 50.358C292.554 50.4681 291.273 50.8392 290.1 51.4498C288.928 52.0605 287.887 52.8987 287.038 53.916C286.188 54.9334 285.548 56.1098 285.152 57.3775C284.757 58.6453 284.615 59.9792 284.734 61.3024C284.734 68.9635 284.734 76.588 284.734 84.2856C284.734 84.8328 284.734 85.38 284.734 85.9272C284.759 86.4017 284.68 86.8758 284.503 87.3163C284.326 87.7567 284.055 88.1526 283.71 88.4762C283.364 88.7997 282.952 89.043 282.503 89.1888C282.053 89.3346 281.578 89.3794 281.109 89.32H275.49C275.024 89.3668 274.553 89.3132 274.11 89.1628C273.666 89.0123 273.259 88.7685 272.916 88.4476C272.573 88.1266 272.302 87.7359 272.121 87.3013C271.939 86.8668 271.852 86.3983 271.865 85.9272C271.865 85.38 271.865 84.8328 271.865 84.2856V44.8129C271.865 40.7999 272.771 39.8879 276.759 39.8879C277.593 39.8879 278.39 39.8879 279.224 39.8879C279.71 39.8495 280.198 39.9175 280.655 40.0872C281.112 40.257 281.528 40.5244 281.872 40.8712C282.217 41.2179 282.482 41.6357 282.651 42.0958C282.82 42.5558 282.887 43.0472 282.849 43.536C282.849 44.4481 282.849 45.3966 282.849 46.1262" fill="#3C373E"/>
<path d="M160.062 67.6865V84.5773C160.051 85.2775 159.966 85.9747 159.808 86.6567C159.657 87.3609 159.266 87.9901 158.704 88.4362C158.142 88.8822 157.443 89.1173 156.727 89.101C154.515 89.101 152.268 89.101 150.02 89.101C149.239 89.1195 148.478 88.8525 147.878 88.3493C147.278 87.8462 146.88 87.1411 146.757 86.3649C146.612 85.7062 146.539 85.0332 146.54 84.3584V50.3579C146.54 48.9351 146.54 48.9351 145.09 48.8986C143.64 48.8621 142.516 48.8986 141.247 48.8986C140.854 48.9232 140.459 48.8689 140.087 48.7387C139.714 48.6085 139.372 48.4051 139.078 48.1403C138.785 47.8755 138.546 47.5546 138.377 47.1962C138.208 46.8379 138.111 46.4493 138.093 46.0531C137.875 44.6754 137.875 43.2719 138.093 41.8942C138.311 40.0702 139.543 39.1946 141.718 39.0852C142.806 39.0852 143.93 39.0852 145.017 39.0852C146.649 39.0852 146.612 39.0852 146.649 37.5529C146.577 34.3138 147.221 31.0991 148.534 28.1408C149.671 25.8388 151.291 23.812 153.281 22.1998C155.271 20.5876 157.584 19.4283 160.062 18.8016C165.243 17.2762 170.776 17.4809 175.832 19.3853H176.231C178.913 20.5162 179.421 21.6471 178.333 24.3103C177.935 25.2223 177.572 26.1708 177.137 27.1193C177.017 27.5601 176.798 27.9669 176.495 28.3079C176.193 28.6488 175.816 28.9146 175.395 29.0843C174.973 29.254 174.518 29.323 174.066 29.2859C173.613 29.2488 173.175 29.1066 172.787 28.8704C170.696 28.0443 168.4 27.9038 166.225 28.4691C164.582 28.8134 163.096 29.6869 161.99 30.9573C160.885 32.2277 160.221 33.8259 160.098 35.51C159.736 39.1581 159.736 39.1581 163.397 39.1581H170.321C173.367 39.1581 174.563 40.3985 174.599 43.3899C174.653 44.289 174.653 45.1905 174.599 46.0896C174.58 46.8606 174.263 47.5936 173.714 48.132C173.165 48.6705 172.429 48.9718 171.663 48.9716C169.596 48.9716 167.53 48.9716 165.5 48.9716C164.16 49.0449 162.816 49.0449 161.476 48.9716C160.425 48.9716 160.171 49.3364 160.171 50.3214C160.171 56.1219 160.171 61.9224 160.171 67.7229" fill="#3C373E"/>
<path d="M332.733 62.3602C332.733 58.3838 332.733 54.3708 332.733 50.3579C332.733 49.227 332.37 49.0081 331.355 49.0081C329.98 49.1175 328.598 49.1175 327.222 49.0081C326.421 49.0179 325.648 48.7093 325.071 48.1493C324.494 47.5893 324.16 46.823 324.141 46.0166C323.978 44.5864 323.978 43.1421 324.141 41.7118C324.192 41.1073 324.459 40.5418 324.892 40.1195C325.325 39.6972 325.895 39.4465 326.497 39.4135C328.133 39.2194 329.78 39.134 331.428 39.1581C332.37 39.1581 332.66 38.9028 332.624 37.9178C332.624 34.2697 332.624 30.6215 332.624 26.9734C332.542 26.4715 332.565 25.958 332.692 25.4656C332.819 24.9733 333.047 24.5131 333.361 24.1146C333.675 23.7162 334.068 23.3881 334.516 23.1517C334.963 22.9152 335.455 22.7755 335.959 22.7416L341.905 21.4647C342.315 21.3499 342.746 21.3286 343.165 21.4024C343.585 21.4763 343.983 21.6433 344.33 21.8914C344.677 22.1396 344.965 22.4625 345.173 22.8368C345.38 23.2111 345.502 23.6272 345.53 24.0549C345.584 24.7226 345.584 25.3937 345.53 26.0614V37.3706C345.53 38.9757 345.53 38.9757 347.161 38.9757H355.862C356.477 38.9218 357.096 38.9218 357.711 38.9757C358.343 39.0542 358.931 39.3456 359.379 39.8025C359.826 40.2595 360.107 40.8552 360.176 41.4929C360.375 43.0918 360.375 44.7096 360.176 46.3085C360.078 46.9392 359.77 47.5177 359.303 47.9487C358.835 48.3798 358.235 48.6376 357.602 48.6797C356.987 48.734 356.368 48.734 355.753 48.6797H346.726C345.965 48.6797 345.639 48.8986 345.639 49.7742C345.639 56.8516 345.639 63.9654 345.639 71.0792C345.65 72.2073 345.771 73.3314 346.001 74.4355C346.179 75.2616 346.53 76.0401 347.031 76.7189C347.531 77.3977 348.17 77.9614 348.904 78.3722C349.638 78.783 350.451 79.0316 351.288 79.1014C352.126 79.1711 352.968 79.0605 353.759 78.7768C354.877 78.4208 355.957 77.9565 356.986 77.3905C358.726 76.5149 359.705 76.7338 360.611 78.4485C361.456 80.144 362.206 81.8857 362.859 83.6653C363.094 84.2405 363.11 84.8832 362.902 85.4693C362.695 86.0554 362.279 86.5434 361.735 86.8391C359.981 88.3775 357.876 89.4553 355.608 89.9765C350.787 91.4015 345.609 90.9456 341.107 88.6997C339.081 87.6896 337.318 86.2168 335.958 84.3989C334.599 82.5809 333.68 80.4683 333.277 78.2296C332.94 76.1545 332.758 74.0571 332.733 71.9548C332.733 68.7809 332.733 65.5706 332.733 62.3602Z" fill="#3C373E"/>
<path d="M190.514 46.345C191.747 45.0682 192.762 43.9008 193.886 42.9158C195.616 41.4028 197.657 40.2917 199.862 39.6613C202.068 39.0308 204.384 38.8964 206.646 39.2677C207.877 39.4033 209.091 39.6599 210.272 40.0338C212.374 40.6904 212.954 41.7119 212.447 43.6819C211.939 45.6519 211.577 47.33 211.069 48.8622C210.977 49.2779 210.794 49.6677 210.534 50.0037C210.274 50.3396 209.943 50.6134 209.565 50.8053C209.187 50.9972 208.771 51.1024 208.348 51.1133C207.925 51.1243 207.505 51.0407 207.118 50.8687C204.67 49.9952 202.018 49.8808 199.505 50.5404C197.645 51.0865 195.991 52.1816 194.757 53.6839C193.522 55.1863 192.764 57.0269 192.581 58.9675C192.337 60.5726 192.24 62.1967 192.29 63.8195C192.29 70.6051 192.29 77.4271 192.29 84.2126C192.327 84.7592 192.327 85.3076 192.29 85.8542C192.262 86.6865 191.914 87.4753 191.318 88.0539C190.723 88.6324 189.928 88.9556 189.1 88.9551C186.853 88.9551 184.641 88.9551 182.43 88.9551C181.564 88.9654 180.727 88.6361 180.098 88.037C179.469 87.4378 179.096 86.6157 179.058 85.7448C179.058 85.234 179.058 84.6868 179.058 84.1761V44.521C179.021 43.95 179.021 43.3773 179.058 42.8063C179.08 42.1435 179.337 41.5103 179.782 41.0217C180.228 40.5331 180.833 40.2214 181.487 40.1432C183.476 39.9423 185.48 39.9423 187.469 40.1432C187.888 40.1659 188.299 40.2737 188.676 40.4601C189.053 40.6466 189.389 40.9078 189.663 41.2281C189.938 41.5484 190.145 41.9211 190.272 42.324C190.4 42.7269 190.445 43.1515 190.405 43.5725C190.463 44.5323 190.463 45.4947 190.405 46.4545" fill="#3C373E"/>
<path d="M45.9028 47.5853L43.2927 44.9951L24.1151 64.2937C21.5735 66.8435 20.1211 70.2908 20.0669 73.9019C20.0127 77.5131 21.3611 81.0029 23.825 83.6288V83.8112L42.6764 102.781C46.473 98.9516 48.6051 93.7628 48.6051 88.3531C48.6051 82.9434 46.473 77.7546 42.6764 73.9247L40.1749 71.4075L44.9965 66.592C47.6113 64.1865 49.1741 60.8377 49.3439 57.2767C49.5137 53.7157 48.2767 50.2317 45.9028 47.5853Z" fill="#3C373E"/>
<path d="M99.4478 43.0616L96.4389 40.0336L63.1228 6.58032C61.2342 8.47184 59.7356 10.7202 58.713 13.1963C57.6904 15.6723 57.1639 18.3273 57.1639 21.0087C57.1639 23.69 57.6904 26.345 58.713 28.8211C59.7356 31.2971 61.2342 33.5455 63.1228 35.437L82.0829 54.5532L62.9778 73.8153C61.0892 75.7068 59.5906 77.9552 58.5679 80.4312C57.5453 82.9073 57.0189 85.5622 57.0189 88.2436C57.0189 90.925 57.5453 93.58 58.5679 96.056C59.5906 98.5321 61.0892 100.78 62.9778 102.672L98.1065 67.3216L99.3028 66.1177C102.351 63.0744 104.077 58.9404 104.104 54.6198C104.131 50.2991 102.457 46.1435 99.4478 43.0616Z" fill="#3C373E"/>
<path d="M42.8939 6.76273L42.7126 6.58032L6.75011 42.8062C5.5082 44.0532 4.5229 45.5345 3.85063 47.1652C3.17836 48.7959 2.83231 50.5441 2.83231 52.3096C2.83231 54.0751 3.17836 55.8232 3.85063 57.4539C4.5229 59.0846 5.5082 60.5659 6.75011 61.8129L11.7892 66.8838L42.8939 35.7653C44.7956 33.8663 46.305 31.6072 47.335 29.1183C48.365 26.6295 48.8953 23.9601 48.8953 21.264C48.8953 18.568 48.365 15.8986 47.335 13.4097C46.305 10.9209 44.7956 8.66179 42.8939 6.76273Z" fill="#3C373E"/>
</g>
<defs>
<clipPath id="clip0_1125_294">
<rect width="560" height="107" fill="white"/>
</clipPath>
</defs>
</svg>
