<svg xmlns="http://www.w3.org/2000/svg" viewBox="0 0 401.15 87.42"><defs><style>.cls-1{fill:#1d1d1b;}</style></defs><g id="Warstwa_2" data-name="Warstwa 2"><g id="Warstwa_1-2" data-name="Warstwa 1"><path class="cls-1" d="M35.21,25.9a17.06,17.06,0,0,0-5.81-3.65,16.72,16.72,0,0,0-6.79-1,22.74,22.74,0,0,0-11.34,2.87A20.25,20.25,0,0,0,3,32.27,24.6,24.6,0,0,0,0,44.66,25,25,0,0,0,3,57.12a20.89,20.89,0,0,0,8.11,8.25,22.74,22.74,0,0,0,11.34,2.87,16.31,16.31,0,0,0,7.25-1.1A16.6,16.6,0,0,0,35.77,63v4.47H51.16V5.19L35.21,4.91ZM32.76,52.71a9.08,9.08,0,0,1-7,2.87,9.27,9.27,0,0,1-7-2.87,11.61,11.61,0,0,1-2.66-8.05,11.29,11.29,0,0,1,2.66-7.91,9.27,9.27,0,0,1,7-2.87,8.86,8.86,0,0,1,7,2.87,11,11,0,0,1,2.66,7.91A11.61,11.61,0,0,1,32.76,52.71Z"/><path class="cls-1" d="M98.05,26.39a25.6,25.6,0,0,0-17.28-4.82A43.64,43.64,0,0,0,69.92,23a29.35,29.35,0,0,0-9.24,3.91l5.39,10.85a17.76,17.76,0,0,1,5.74-2.94,22.06,22.06,0,0,1,6.65-1c6.16,0,9.65,2.24,9.65,7H79a26.3,26.3,0,0,0-15.26,3.57,11.56,11.56,0,0,0-5,10.08,13.11,13.11,0,0,0,2,7,14,14,0,0,0,5.81,5,21.6,21.6,0,0,0,9.17,1.82A14,14,0,0,0,89.16,61.6v5.87h14.91V42.21a19.78,19.78,0,0,0-6-15.82ZM87.83,52.92a7.88,7.88,0,0,1-3.07,3.92,8.66,8.66,0,0,1-5,1.33,7.05,7.05,0,0,1-4.41-1.26,4,4,0,0,1-1.18-1.5,4.1,4.1,0,0,1-.36-1.86q0-4.62,7-4.62h7Z"/><rect class="cls-1" x="114.15" y="21.99" width="15.96" height="45.49"/><path class="cls-1" d="M129.05,2.32a10.26,10.26,0,0,0-7-2.31,10.08,10.08,0,0,0-7,2.38,7.89,7.89,0,0,0-2.73,6.09,7.76,7.76,0,0,0,2.73,6,11.32,11.32,0,0,0,14,0,8.08,8.08,0,0,0,2.06-2.85,8.2,8.2,0,0,0,.67-3.45,7.33,7.33,0,0,0-2.73-5.88Z"/><rect class="cls-1" x="140.74" y="5.19" width="15.96" height="62.28"/><polygon class="cls-1" points="265.77 49.98 256.4 21.99 242.82 21.99 233.16 49.56 223.79 21.99 208.67 21.99 224.91 67.47 240.16 67.47 249.26 42.7 257.8 67.47 273.26 67.47 289.5 21.99 275.43 21.99 265.77 49.98"/><path class="cls-1" d="M329.77,23.88a28,28,0,0,0-12.39-2.8,27.41,27.41,0,0,0-12.81,3,22.56,22.56,0,0,0-12.39,20.57,22.44,22.44,0,0,0,3.29,12.18,22.92,22.92,0,0,0,9.38,8.4,30.51,30.51,0,0,0,14,3,24.7,24.7,0,0,0,19.38-7.34l-8.4-8.75a16.63,16.63,0,0,1-4.82,3,15.23,15.23,0,0,1-5.67.91,12.87,12.87,0,0,1-7-1.89,9,9,0,0,1-3.92-5.39h33.1c.14-2.52.21-4.13.21-4.13a23.7,23.7,0,0,0-3.22-12.6A21.79,21.79,0,0,0,329.77,23.88ZM308.14,40.53a9.93,9.93,0,0,1,3.15-5.74,10.23,10.23,0,0,1,12.39,0,9.93,9.93,0,0,1,3.15,5.74Z"/><path class="cls-1" d="M398.2,32.27a20.91,20.91,0,0,0-8.11-8.18,22.54,22.54,0,0,0-11.27-2.59,17,17,0,0,0-6.82,1,17.45,17.45,0,0,0-5.85,3.64v-21H350.2V67.47h15.18V63a16.56,16.56,0,0,0,13.44,5.24,22.69,22.69,0,0,0,11.27-2.87,21.36,21.36,0,0,0,8.11-8.25,25.85,25.85,0,0,0,2.94-12.46A25.36,25.36,0,0,0,398.2,32.27ZM382.32,52.71a9.66,9.66,0,0,1-14,0,11.33,11.33,0,0,1-2.73-8.05,11,11,0,0,1,2.73-7.91,9.66,9.66,0,0,1,14,0,11,11,0,0,1,2.73,7.91A11.37,11.37,0,0,1,382.32,52.71Z"/><polygon class="cls-1" points="161.51 87.42 176.77 87.42 203.85 22.06 188.66 22.06 161.51 87.42"/></g></g></svg>