<?xml version="1.0" encoding="utf-8"?>
<!-- Generator: Adobe Illustrator 26.3.1, SVG Export Plug-In . SVG Version: 6.00 Build 0)  -->
<svg version="1.1" id="Layer_1" xmlns="http://www.w3.org/2000/svg" xmlns:xlink="http://www.w3.org/1999/xlink" x="0px" y="0px"
	 viewBox="0 0 496 304" style="enable-background:new 0 0 496 304;" xml:space="preserve">
<style type="text/css">
	.st0{fill:#273238;}
	.st1{fill:#EA9423;}
</style>
<g>
	<path class="st0" d="M190.5,181.8c0.7-0.1,1.4-0.2,2-0.3c0.6-0.1,1.2-0.1,1.7-0.1c0.5,0,1,0,1.5,0.1c0.6,0,1.2,0.1,1.7,0.2
		l3.1,17.1c0.6-2.7,1.2-5.6,1.9-8.6c0.6-3,1.2-5.8,1.9-8.5c0.4-0.1,0.9-0.1,1.5-0.2c0.6-0.1,1.1-0.1,1.7-0.1c0.5,0,1,0,1.5,0.1
		c0.5,0.1,1,0.1,1.3,0.2l3.9,17.2l3.1-17.2c0.5-0.1,1.1-0.2,1.6-0.2c0.4,0,0.9-0.1,1.4-0.1c0.5,0,1,0,1.6,0.1c0.6,0,1.2,0.1,1.9,0.2
		l-6.4,26.7c-0.4,0.1-0.9,0.1-1.4,0.2c-1.3,0.2-2.6,0.2-4,0c-0.7-0.1-1.1-0.2-1.3-0.2l-3.5-15.4l-3.8,15.4c-0.2,0.1-0.7,0.1-1.2,0.2
		c-1.3,0.2-2.6,0.2-3.8,0c-0.5-0.1-1-0.2-1.4-0.2L190.5,181.8z"/>
	<path class="st0" d="M227,181.7h15.8c0.1,0.6,0.2,1.1,0.2,1.5c0.1,0.4,0.1,0.9,0.1,1.3c0,1-0.1,2-0.3,2.9h-9.1v4.1h7.2
		c0.2,1,0.3,1.9,0.3,2.9c0,1-0.1,2-0.3,2.9h-7.2v5.3h9.3c0.2,0.9,0.3,1.9,0.3,2.8c0,1-0.1,2-0.3,3h-16L227,181.7z"/>
	<path class="st0" d="M247.6,181.8c0.9-0.2,2-0.3,3.1-0.4c1.1-0.1,2.4-0.2,3.9-0.2c1.3,0,2.7,0.1,4,0.4c1.1,0.2,2.2,0.6,3.2,1.2
		c0.9,0.5,1.7,1.3,2.2,2.2c0.6,1.1,0.8,2.3,0.8,3.5c0,1.1-0.3,2.2-0.8,3.2c-0.5,0.9-1.2,1.7-2,2.2c0.6,0.2,1.1,0.5,1.7,0.9
		c0.5,0.4,1,0.8,1.4,1.3c0.4,0.6,0.8,1.2,1,1.9c0.6,2.2,0.4,4.6-0.5,6.7c-0.6,1.1-1.4,1.9-2.5,2.5c-1.1,0.7-2.4,1.1-3.7,1.3
		c-1.6,0.3-3.1,0.4-4.7,0.4c-1.3,0-2.6,0-3.6-0.1c-1.1-0.1-2.2-0.2-3.5-0.4L247.6,181.8z M255.2,192c0.9,0,1.8-0.2,2.5-0.7
		c0.6-0.6,1-1.4,0.9-2.3c0-0.5-0.1-0.9-0.3-1.3c-0.2-0.3-0.5-0.6-0.8-0.8c-0.3-0.2-0.7-0.3-1.1-0.4c-0.4-0.1-0.8-0.1-1.2-0.1h-0.5
		c-0.2,0-0.4,0-0.5,0v5.5L255.2,192z M254.1,203.5c0.2,0,0.4,0,0.7,0.1s0.6,0,1,0c0.5,0,1-0.1,1.4-0.2c0.5-0.1,0.9-0.3,1.3-0.5
		c0.4-0.2,0.7-0.6,1-1c0.2-0.5,0.4-1,0.4-1.5c0.1-1-0.4-1.9-1.2-2.5c-0.9-0.5-2-0.7-3-0.7h-1.5L254.1,203.5z"/>
	<path class="st0" d="M276,197.2c-0.9-0.3-1.7-0.7-2.4-1.2c-0.7-0.4-1.3-1-1.9-1.6c-0.5-0.6-0.9-1.3-1.2-2.1
		c-0.3-0.9-0.4-1.8-0.4-2.8c0-1.2,0.2-2.4,0.7-3.5c0.4-1,1.1-1.9,1.9-2.6c0.9-0.7,1.9-1.3,2.9-1.6c1.2-0.4,2.5-0.6,3.8-0.5
		c1.2,0,2.5,0.1,3.7,0.4c1.3,0.3,2.6,0.6,3.8,1.1c-0.1,0.9-0.3,1.8-0.5,2.6c-0.3,0.9-0.6,1.8-1,2.7c-0.7-0.3-1.4-0.6-2.3-0.9
		c-1.1-0.3-2.1-0.5-3.2-0.4c-0.4,0-0.8,0-1.1,0.1c-0.3,0.1-0.7,0.2-1,0.4c-0.3,0.2-0.5,0.4-0.7,0.7c-0.2,0.3-0.3,0.7-0.3,1.1
		c0,0.6,0.2,1.2,0.7,1.6c0.5,0.4,1.1,0.7,1.7,0.9l1.8,0.7c1,0.4,2,0.9,2.8,1.3c0.8,0.4,1.5,0.9,2.1,1.6c0.6,0.6,1.1,1.4,1.4,2.2
		c0.3,1,0.5,2.1,0.5,3.1c0,1.2-0.2,2.4-0.7,3.6c-0.5,1.1-1.2,2-2,2.7c-1,0.8-2.1,1.4-3.3,1.8c-1.5,0.4-3,0.6-4.5,0.6
		c-1.4,0-2.7-0.1-4.1-0.4c-1.3-0.3-2.6-0.7-3.8-1.2c0.1-0.9,0.3-1.9,0.5-2.8c0.3-1,0.6-2,0.9-3c1.9,0.9,3.9,1.4,6,1.5
		c1,0.1,2-0.1,3-0.6c0.7-0.4,1.1-1.2,1.1-2c0-0.4-0.1-0.7-0.2-1c-0.1-0.3-0.3-0.5-0.6-0.7c-0.3-0.2-0.5-0.4-0.8-0.5
		c-0.3-0.1-0.6-0.3-1-0.4L276,197.2z"/>
	<path class="st0" d="M302.4,209c-1.8,0-3.6-0.3-5.3-1c-1.4-0.6-2.7-1.6-3.7-2.9c-1-1.3-1.7-2.8-2.1-4.4c-0.5-1.8-0.7-3.6-0.7-5.5
		c0-1.9,0.2-3.7,0.7-5.5c0.4-1.6,1.1-3.1,2.1-4.4c1-1.3,2.2-2.3,3.7-2.9c1.7-0.7,3.5-1.1,5.3-1.1c1.8,0,3.6,0.3,5.3,1.1
		c1.4,0.7,2.7,1.7,3.6,2.9c1,1.3,1.7,2.8,2.1,4.4c0.5,1.8,0.7,3.7,0.7,5.5c0,1.9-0.2,3.7-0.7,5.5c-0.4,1.6-1.1,3.1-2.1,4.4
		c-1,1.2-2.2,2.2-3.6,2.9C306,208.7,304.2,209,302.4,209z M302.4,203.3c3.2,0,4.8-2.7,4.8-8.1c0-5.4-1.6-8.1-4.7-8.1
		c-3.2,0-4.8,2.7-4.9,8.1c0,2.7,0.4,4.7,1.2,6.1C299.5,202.6,300.9,203.4,302.4,203.3L302.4,203.3z"/>
	<path class="st0" d="M318.1,181.8c0.7-0.1,1.3-0.2,1.8-0.2c0.6-0.1,1-0.1,1.5-0.1c0.4,0,1,0,1.5,0.1s1.2,0.1,1.8,0.2v20.9h8.6
		c0.1,0.5,0.2,1.1,0.2,1.6c0,0.5,0.1,0.9,0.1,1.3c0,0.4,0,0.9-0.1,1.3c-0.1,0.6-0.1,1.1-0.2,1.7h-15.2V181.8z"/>
	<path class="st0" d="M336.8,181.8c0.7-0.1,1.3-0.2,1.9-0.2s1-0.1,1.5-0.1s0.9,0,1.4,0.1c0.5,0.1,1.1,0.1,1.8,0.2v14.5
		c0,1.1,0,2.1,0.2,3.2c0.1,0.7,0.2,1.5,0.5,2.1c0.2,0.5,0.6,0.9,1.1,1.2c0.6,0.3,1.2,0.4,1.9,0.4c0.6,0,1.3-0.1,1.9-0.4
		c0.5-0.2,0.9-0.7,1.1-1.2c0.3-0.7,0.5-1.4,0.5-2.1c0.1-0.9,0.1-1.9,0.1-3.2v-14.5c0.7-0.1,1.4-0.2,1.9-0.2c0.5,0,1-0.1,1.4-0.1
		c0.4,0,0.9,0,1.5,0.1c0.5,0.1,1.1,0.1,1.9,0.2V197c0,1.7-0.1,3.3-0.5,5c-0.3,1.4-0.8,2.6-1.6,3.8c-0.8,1.1-1.9,1.9-3.2,2.4
		c-3.3,1.1-6.8,1.1-10,0c-1.2-0.5-2.3-1.3-3.2-2.4c-0.8-1.1-1.4-2.4-1.6-3.8c-0.3-1.6-0.5-3.3-0.5-5L336.8,181.8z"/>
	<path class="st0" d="M367.7,187.5h-6.2c-0.2-1-0.3-2-0.3-2.9c0-1,0.1-1.9,0.3-2.9h19.1c0.1,0.6,0.2,1.1,0.2,1.5
		c0,0.4,0.1,0.9,0.1,1.3c0,1-0.1,2-0.3,2.9h-6.2v20.9c-1.1,0.2-2.2,0.3-3.3,0.3c-1.1,0-2.2-0.1-3.3-0.3L367.7,187.5z"/>
	<path class="st0" d="M385.1,181.8c0.7-0.1,1.3-0.2,1.8-0.2c0.5-0.1,1-0.1,1.5-0.1c0.4,0,1,0,1.5,0.1c0.6,0.1,1.2,0.1,1.8,0.2v26.7
		c-1.1,0.2-2.2,0.3-3.3,0.3c-1.1,0-2.2-0.1-3.3-0.3L385.1,181.8z"/>
	<path class="st0" d="M407.2,209c-1.8,0-3.6-0.3-5.3-1c-1.4-0.6-2.7-1.6-3.7-2.9c-1-1.3-1.7-2.8-2.1-4.4c-0.5-1.8-0.7-3.6-0.7-5.5
		c0-1.9,0.2-3.7,0.7-5.5c0.4-1.6,1.1-3.1,2.1-4.4c1-1.3,2.2-2.3,3.7-2.9c3.4-1.4,7.2-1.4,10.5,0c1.4,0.7,2.7,1.7,3.6,2.9
		c1,1.3,1.7,2.8,2.1,4.4c0.5,1.8,0.7,3.7,0.7,5.5c0,1.9-0.2,3.7-0.7,5.5c-0.4,1.6-1.1,3.1-2.1,4.4c-1,1.2-2.2,2.2-3.6,2.9
		C410.9,208.7,409.1,209,407.2,209z M407.2,203.3c3.2,0,4.8-2.7,4.8-8.1c0-5.4-1.6-8.1-4.7-8.1c-3.2,0-4.9,2.7-4.9,8.1
		c0,2.7,0.4,4.7,1.2,6.1C404.3,202.6,405.8,203.4,407.2,203.3L407.2,203.3z"/>
	<path class="st0" d="M422.4,181.8c0.5-0.1,1-0.2,1.5-0.2c0.4,0,0.9-0.1,1.3-0.1c0.5,0,0.9,0,1.4,0.1c0.5,0.1,0.9,0.1,1.3,0.2
		l8.7,14.6v-14.6c0.7-0.1,1.2-0.2,1.8-0.2c0.5-0.1,1-0.1,1.4-0.1s0.9,0,1.3,0.1s1,0.1,1.5,0.2l0,26.7c-0.4,0.1-0.7,0.2-1.1,0.2
		c-0.5,0.1-1,0.1-1.5,0.1c-0.6,0-1.1,0-1.7-0.1c-0.5-0.1-0.9-0.2-1.1-0.2l-8.7-14.6v14.6c-1,0.2-2,0.3-3,0.3c-1,0-2-0.1-3-0.3V181.8
		z"/>
	<path class="st0" d="M452.5,197.2c-0.9-0.3-1.7-0.7-2.4-1.2c-0.7-0.4-1.3-1-1.9-1.6c-0.5-0.6-0.9-1.3-1.2-2.1
		c-0.3-0.9-0.4-1.8-0.4-2.8c0-1.2,0.2-2.4,0.7-3.5c0.4-1,1.1-1.9,1.9-2.6c0.9-0.7,1.9-1.3,2.9-1.6c1.2-0.4,2.5-0.6,3.8-0.5
		c1.2,0,2.5,0.1,3.7,0.4c1.3,0.3,2.5,0.6,3.8,1.1c-0.1,0.9-0.3,1.8-0.5,2.6c-0.3,0.9-0.6,1.8-1,2.7c-0.7-0.3-1.4-0.6-2.3-0.9
		c-1.1-0.3-2.1-0.5-3.2-0.4c-0.4,0-0.8,0-1.1,0.1c-0.3,0.1-0.7,0.2-1,0.4c-0.3,0.2-0.5,0.4-0.7,0.7c-0.2,0.3-0.3,0.7-0.3,1.1
		c0,0.6,0.2,1.2,0.7,1.6c0.5,0.4,1.1,0.7,1.7,0.9l1.8,0.7c1,0.4,2,0.9,2.8,1.3c0.8,0.4,1.5,0.9,2.1,1.6c0.6,0.6,1.1,1.4,1.4,2.2
		c0.3,1,0.5,2.1,0.5,3.1c0,1.2-0.2,2.4-0.7,3.6c-0.5,1.1-1.2,2-2,2.7c-1,0.8-2.1,1.4-3.3,1.8c-1.5,0.4-3,0.6-4.5,0.6
		c-1.4,0-2.7-0.1-4.1-0.4c-1.3-0.3-2.6-0.7-3.8-1.2c0.1-0.9,0.3-1.9,0.5-2.8c0.3-1,0.6-2,0.9-3c1.9,0.9,3.9,1.4,6,1.5
		c1,0.1,2-0.1,3-0.6c0.7-0.4,1.1-1.2,1.1-2c0-0.7-0.3-1.3-0.8-1.8c-0.3-0.2-0.5-0.4-0.8-0.5c-0.3-0.1-0.6-0.3-1-0.4L452.5,197.2z"/>
</g>
<g>
	<path class="st1" d="M274.3,229.6H268l-1.4,3.8c-0.3,0.9-0.6,1.4-1.8,1.4c-0.9,0-1.3-0.3-1.3-0.9c0-0.3,0.1-0.6,0.2-0.9l5.8-14.1
		c0.4-1.1,0.8-1.8,1.8-1.8s1.3,0.7,1.8,1.8l5.6,14.1c0.1,0.3,0.2,0.6,0.2,0.9c0,0.6-0.5,0.9-1.4,0.9c-1.1,0-1.4-0.5-1.8-1.4
		L274.3,229.6z M269,227.1h4.3l-2.1-5.6L269,227.1z"/>
	<path class="st1" d="M301.5,232.2c0,1-0.2,1.4-1.6,2c-1.4,0.5-2.9,0.8-4.4,0.8c-5.1,0-9.2-3-9.2-9c0-6.4,4.7-8.9,9.2-8.9
		c1.6,0,3.2,0.3,4.7,1.1c0.8,0.4,1.2,0.8,1.2,1.3s-0.4,1.5-1.2,1.5c-0.4,0-0.9-0.4-1.8-0.8c-0.9-0.4-1.9-0.6-3-0.6
		c-2.9,0-6,1.7-6,6.2c0,4.3,2.8,6.4,6.2,6.4c1,0,2.1-0.2,3-0.6v-2.6c-0.1-0.4,0-0.8,0.2-1.1c0.3-0.3,0.8-0.5,1.3-0.5
		c0.5,0,0.9,0.1,1.3,0.5c0.2,0.3,0.3,0.8,0.2,1.1L301.5,232.2z"/>
	<path class="st1" d="M314.8,224.2h3.7c0.4,0,0.7,0,1,0.2c0.3,0.3,0.5,0.7,0.5,1.1c0,0.4-0.1,0.8-0.5,1.1c-0.3,0.2-0.7,0.3-1,0.2
		h-3.7v5.3h5.4c0.4,0,0.7,0,1,0.2c0.3,0.3,0.5,0.7,0.5,1.1c0,0.4-0.1,0.8-0.5,1.1c-0.3,0.2-0.7,0.3-1,0.2h-6.9
		c-1.1,0-1.4-0.4-1.4-1.4v-14.4c0-1,0.4-1.4,1.4-1.4h6.2c0.4,0,0.7,0,1,0.2c0.6,0.6,0.6,1.5,0,2.1c0,0,0,0,0,0
		c-0.3,0.2-0.7,0.3-1,0.2h-4.7L314.8,224.2z"/>
	<path class="st1" d="M334,233.2c0.1,0.4,0,0.8-0.2,1.2c-0.7,0.6-1.7,0.6-2.4,0c-0.2-0.4-0.3-0.8-0.2-1.2v-14.8
		c0-0.8,0.5-1.2,1.3-1.2c1,0,1.4,0.6,2.2,1.5l8.7,10.8v-10.7c-0.1-0.4,0-0.8,0.2-1.1c0.3-0.3,0.8-0.5,1.2-0.5
		c0.5-0.1,0.9,0.1,1.2,0.5c0.2,0.3,0.3,0.7,0.2,1.1v14.8c0,0.8-0.5,1.2-1.3,1.2c-0.8,0-1.3-0.5-2.1-1.5l-8.9-10.9L334,233.2z"/>
	<path class="st1" d="M363.2,232.4c0.9,0,1.7-0.2,2.5-0.5c1-0.4,1.5-0.8,2-0.8c0.7,0,1.2,0.9,1.2,1.4s-0.4,1-1.1,1.4
		c-1.4,0.8-3,1.2-4.7,1.1c-4.7,0-8.8-3-8.8-9.1c0-6,4.2-8.9,8.8-8.9c1.6,0,3.2,0.4,4.7,1.1c0.7,0.4,1.1,0.8,1.1,1.4
		c0,0.6-0.4,1.5-1.2,1.5c-0.5,0-1-0.4-2.1-0.9c-0.8-0.4-1.7-0.6-2.6-0.6c-2.8,0-5.6,1.7-5.6,6.2
		C357.5,230.3,360.3,232.4,363.2,232.4z"/>
	<path class="st1" d="M387.9,218.6c0.5-0.8,0.8-1.3,2.1-1.3c1,0,1.3,0.3,1.3,0.8c0,0.4-0.2,0.8-0.5,1.1l-5.6,8.9v5.1
		c0,0.4,0,0.8-0.2,1.2c-0.3,0.3-0.8,0.5-1.3,0.5c-0.5,0-0.9-0.1-1.3-0.5c-0.2-0.4-0.3-0.8-0.2-1.2v-5.1l-5.4-8.8
		c-0.3-0.3-0.4-0.8-0.5-1.2c0-0.5,0.5-0.8,1.5-0.8c1.2,0,1.6,0.5,2.1,1.3l3.9,6.7L387.9,218.6z"/>
</g>
<path class="st1" d="M134.5,182.1c1.1,0,2.1,0.5,2.7,1.5l31.4,47.2c1,1.5,0.6,3.6-0.9,4.6c-0.5,0.4-1.2,0.6-1.8,0.6h-40.3
	c-1.8,0-3.3-1.5-3.3-3.3c0-0.7,0.2-1.3,0.6-1.8l9.8-14.7c0.4-0.6,1.2-0.7,1.7-0.3l3.4,2.3c0.6,0.4,0.7,1.2,0.4,1.7c0,0,0,0,0,0
	l-5.4,8.1c-0.3,0.4-0.2,1,0.3,1.3c0.1,0.1,0.3,0.2,0.5,0.2H158c0.5,0,0.9-0.4,0.9-0.9c0-0.2-0.1-0.4-0.2-0.5l-23.5-35.3
	c-0.3-0.4-0.9-0.6-1.3-0.3c-0.1,0.1-0.2,0.2-0.3,0.3l-26.3,41.9c-1.1,1.5-3.3,1.8-4.8,0.7c-0.3-0.2-0.5-0.4-0.7-0.7l-9.7-14.5l4-6
	l7.7,11.6c0.3,0.4,0.9,0.6,1.3,0.3c0.1-0.1,0.2-0.2,0.3-0.3l26.3-41.9C132.4,182.7,133.4,182.1,134.5,182.1z"/>
<path class="st0" d="M42.6,182.1h18.5c0.9,0,1.7,0.8,1.7,1.7v0v3.2c0,0.9-0.8,1.7-1.7,1.7h-9.7c-0.8,0-1.4,0.6-1.4,1.4
	c0,0.3,0.1,0.6,0.2,0.8l22.7,34c0.2,0.4,0.7,0.6,1.2,0.4c0.2-0.1,0.3-0.2,0.4-0.4l22.7-34.1c0.4-0.6,0.2-1.5-0.4-1.9
	c-0.2-0.1-0.5-0.2-0.8-0.2H82.1c-0.8,0-1.4,0.6-1.4,1.4c0,0.3,0.1,0.6,0.2,0.8l4.7,7c0.1,0.1,0.1,0.3,0,0.5l-3.5,5.2
	c-0.1,0.2-0.4,0.2-0.6,0.1c0,0-0.1-0.1-0.1-0.1l-10.9-16.4c-1-1.5-0.6-3.6,0.9-4.6c0.5-0.4,1.2-0.6,1.8-0.6h31.4
	c1.8,0,3.3,1.5,3.3,3.3c0,0.7-0.2,1.3-0.6,1.8L76,234.4c-1.2,1.8-3.5,1.8-4.7,0l-31.5-47.2c-1-1.5-0.6-3.6,0.9-4.6
	C41.3,182.3,42,182.1,42.6,182.1z"/>
</svg>
