<svg xmlns="http://www.w3.org/2000/svg" viewBox="0 0 98.95 102.42"><defs><style>.cls-1{fill:#2bf;}.cls-2{fill:#00447c;}.cls-3{fill:#fff;}</style></defs><title>Asset 3</title><g id="Layer_2" data-name="Layer 2"><g id="Layer_1-2" data-name="Layer 1"><rect class="cls-1" width="98.95" height="102.42"/><path class="cls-2" d="M66.5,30.48,80.63,42.3l-7.85,8.22H67.56V78.31H31.39V50.52H26.17L18.32,42.3,32.45,30.48h7.19c0,4.27,4.4,7.73,9.83,7.73s9.84-3.46,9.84-7.73H66.5m1.41-3.88H55.43v3.88c0,1.82-2.45,3.85-6,3.85s-5.95-2-5.95-3.85V26.6H31L30,27.5,15.83,39.32,12.65,42l2.86,3,7.86,8.22,1.14,1.2h3V82.19H71.44V54.4h3l1.15-1.2L83.44,45l2.86-3-3.18-2.66L69,27.5l-1.08-.9Z"/><polygon class="cls-3" points="57.24 64.1 55.43 62.29 61.3 56.41 55.43 50.54 57.24 48.73 64.93 56.41 57.24 64.1"/><polygon class="cls-3" points="41.81 64.1 34.13 56.41 41.81 48.73 43.62 50.54 37.75 56.41 43.62 62.29 41.81 64.1"/><polygon class="cls-3" points="44.54 66.71 47.24 66.71 54.22 46.12 51.52 46.12 44.54 66.71"/></g></g></svg>