<svg id="Layer_1" data-name="Layer 1" xmlns="http://www.w3.org/2000/svg" viewBox="0 0 144.54 222.1"><defs><style>.cls-1{fill:#fff;}.cls-2{fill:#888b9f;opacity:0.5;}.cls-3{fill:#a5a5a5;}.cls-4{fill:#7c7c7c;}.cls-5{fill:#00d0bf;}.cls-6{fill:#232323;}.cls-19,.cls-7{fill:none;stroke-miterlimit:10;}.cls-7{stroke:#00d0bf;stroke-width:0.95px;}.cls-8{fill:#3f3f3f;}.cls-9{opacity:0.2;}.cls-10{fill:#666;}.cls-11{fill:#e0be9d;}.cls-12{fill:#474747;}.cls-13{fill:#0039ff;}.cls-14{fill:#d34f26;}.cls-15{fill:#030a3d;}.cls-16{fill:#0a0a0a;}.cls-17{fill:#adadad;}.cls-18,.cls-19{opacity:0.3;}.cls-19{stroke:#fff;stroke-linecap:round;stroke-width:0.64px;}</style></defs><title>ikony</title><rect class="cls-1" x="29.45" y="12.94" width="87.89" height="209"/><polygon class="cls-2" points="141.94 75.43 44.12 131.27 3.85 108.3 101.61 52.42 141.94 75.43"/><polygon class="cls-3" points="10.69 112.61 41.81 129.99 46.62 127.25 15.49 109.87 10.69 112.61"/><polygon class="cls-3" points="28.96 122.61 23.79 119.82 23.79 84.93 28.96 87.84 28.96 122.61"/><polygon class="cls-1" points="141.94 46.24 44.12 102.08 3.85 79.11 3.85 77.35 101.61 23.23 141.94 44.48 141.94 46.24"/><polygon class="cls-4" points="98.48 62.93 129.61 80.31 134.41 77.58 103.28 60.19 98.48 62.93"/><polygon class="cls-4" points="116.75 72.93 111.58 70.15 111.58 35.25 116.75 38.16 116.75 72.93"/><polygon class="cls-5" points="141.94 44.48 44.12 100.31 3.85 77.35 101.61 21.47 141.94 44.48"/><polygon class="cls-1" points="65.05 57.04 52.8 63.98 44.4 59.19 56.64 52.25 65.05 57.04"/><polygon class="cls-1" points="103.35 57.04 82.23 69.07 73.83 64.28 94.95 52.25 103.35 57.04"/><polygon class="cls-6" points="69.48 21.2 35.7 40.42 35.7 66.14 69.48 46.91 69.48 21.2"/><polygon class="cls-1" points="100.32 37.28 88.07 44.22 79.68 39.43 91.92 32.49 100.32 37.28"/><polygon class="cls-6" points="104.76 1.44 70.98 20.66 70.98 46.38 104.76 27.15 104.76 1.44"/><line class="cls-7" x1="75.46" y1="40.75" x2="101.72" y2="25.81"/><line class="cls-7" x1="75.46" y1="37.55" x2="97.13" y2="25.22"/><line class="cls-7" x1="75.46" y1="34.35" x2="101.72" y2="19.41"/><line class="cls-7" x1="75.46" y1="31.15" x2="86.75" y2="24.73"/><line class="cls-7" x1="75.46" y1="27.95" x2="101.72" y2="13.01"/><line class="cls-7" x1="75.46" y1="24.76" x2="92.69" y2="14.95"/><line class="cls-7" x1="75.46" y1="21.56" x2="101.72" y2="6.61"/><line class="cls-7" x1="40.18" y1="60.51" x2="66.44" y2="45.57"/><line class="cls-7" x1="40.18" y1="57.31" x2="61.85" y2="44.98"/><line class="cls-7" x1="40.18" y1="54.11" x2="66.44" y2="39.17"/><line class="cls-7" x1="40.18" y1="50.92" x2="51.47" y2="44.49"/><line class="cls-7" x1="40.18" y1="47.72" x2="66.44" y2="32.77"/><line class="cls-7" x1="40.18" y1="44.52" x2="57.41" y2="34.71"/><line class="cls-7" x1="40.18" y1="41.32" x2="66.44" y2="26.37"/><path class="cls-8" d="M92.82,86.85a6.9,6.9,0,0,1,.73-6.73c1.56-2.08,5.64-5,10.07-.63s1.4,6.59,1.4,6.59l-8.21.23Z"/><path class="cls-9" d="M123.43,46a13.79,13.79,0,0,0-6.35.35q0-.59,0-1c.58-.54-3.32-.34-2.89-1a29.33,29.33,0,0,0,1.06-2.9s2.87-2.45,2.71-5.8c-.13-2.87,3.24-6.82-3.61-8.17a13.55,13.55,0,0,0-3.76.13,33.11,33.11,0,0,0-4.18,1.4l-2.59,2.34,0,2.76s.29-.09.67-.18c-.09,1.76.92,3,.82,3.91s-.87,2.1-.83,3.11c0,1.47,1.2,2.64,1.48,3.65.75,2.74,2,3.34,3.61,3.34a4.44,4.44,0,0,0,.51.9,30.43,30.43,0,0,0-6.38,3.56c-4.2,3.34-9,11.68-13.75,14.31C86,68.69,73.12,68.11,73.12,68.11a3.88,3.88,0,0,0-.64.2c-3.87-.84-8.25,2.61-8.25,2.61a10.69,10.69,0,0,0,2.65,2.48l6.05.14.19.11s15.55,4,20.41,1.67a66.21,66.21,0,0,0,7-4.44S102.63,84,102.72,92c0,3.51,9.52,6.76,15.06,4.44,6.56-2.73,7.83-8.66,8.92-11.29.82-2-.14-11.93-.92-18.76.5.09,1.43-.44,3.17-2.44C130.15,62.59,129.15,47.59,123.43,46Z"/><path class="cls-10" d="M86.57,115.19a3.92,3.92,0,0,1-3.07-2.28c-2.31-5.57-6.51-16.49-6-21.27.23-2.07,1.12-5.42,4.22-7.2,5.22-3,20.64-.21,20.64-.21l9.06,13.61L89.12,96.3l3.74,15.86a1.09,1.09,0,0,1-.65,1.61c-1,.42.05,2.07-2.94,3.11C87.12,117.63,86.57,115.19,86.57,115.19Z"/><path class="cls-11" d="M120.16,35.92c0,5.44-3.64,9.34-8.07,9.85-3,.35-5.08.92-6.18-3.09-.28-1-1.43-2.19-1.48-3.65,0-1,.73-2.21.83-3.11.13-1.11-1.52-2.81-.52-5.35,1.36-3.41,4.06-4.51,7.35-4.51C116.55,26.06,120.16,30.47,120.16,35.92Z"/><path class="cls-11" d="M64.23,69.12S69,65.34,73,66.65,74.9,71.8,74.9,71.8l-8-.19A10.62,10.62,0,0,1,64.23,69.12Z"/><path class="cls-11" d="M114.14,48.12l-1.53.22a3.61,3.61,0,0,1-3.34-3.63h0a3.35,3.35,0,0,1,3.34-3.34h1.14c1.83,0,3.34-2.25,3.34,3.34h0C117.09,46.55,116.54,47.5,114.14,48.12Z"/><path class="cls-12" d="M110.15,34.76c.73.89-.25,2.66,0,3.79.16.84,1.61,3.64,2.46,3.71,2.83.23,2.37,1.86,3.83,1.51,1.19-.28,2.37-2.24,2.37-2.24s2.55-3.38,2.39-6.73c-.13-2.88,0-7.9-6.85-9.25a14.37,14.37,0,0,0-3.76.13,34.43,34.43,0,0,0-4.18,1.41l-2.59,2.33,0,2.77s2-.62,2.64-.26,1.29.61,1.33,1.29-.18,4-.18,4l.76.28s0-2.57.53-2.94A1.38,1.38,0,0,1,110.15,34.76Z"/><path class="cls-11" d="M89.9,64.79C86,66.9,73.12,66.32,73.12,66.32s-1.56.3-1.79,1.25a3.6,3.6,0,0,0,1.79,4.29S87,75.76,91.83,73.39c1-.51,3.78-1.67,5-2.45a16.78,16.78,0,0,1-4-8.38A14.54,14.54,0,0,1,89.9,64.79Z"/><path class="cls-13" d="M123.43,44.16c-4.74-1.35-15.93,3.25-19.78,6.32-3.34,2.66-7,8.49-10.83,12.08a18.93,18.93,0,0,0,4.26,8.89c1.86-1.2,2.92-1.2,3.47-2.36s1.56,3.26,1.87,8c.12,1.74-.77,3.46-1,5-3,21.36,10.79,16.29,16.4,13.94,6.55-2.74,7.77-10,8.86-12.6.82-2-.14-11.93-.92-18.76-.78-.13-.49-1.77-.49-1.77L125,58.06s.38,2.81.81,6.56c.5.09,1.43-.45,3.17-2.44C130.15,60.8,129.15,45.8,123.43,44.16Z"/><path class="cls-14" d="M125.29,62.85s-.29,1.64.49,1.77c-.43-3.75-.81-6.56-.81-6.56Z"/><path class="cls-15" d="M100.69,68.67l.93,2.41s1.08,4.29.8,6c-.74,4.56-3.27,14.76.94,18.9,5.57,5.48,13.09.45,13.09.45s-10.62-2.35-11.8-5c-1.4-3.11,11-2.75,7.24-3.43-9-1.62-7.86-9.85-5.85-6.94,1.45,2.1,6.36,1.12,3.27-.56s-6.37-6.83-5.46-8.74S100.69,68.67,100.69,68.67Z"/><path class="cls-16" d="M93.51,106.25a2.65,2.65,0,0,0-1.86.79l1,4.44a2.75,2.75,0,0,0,.9.16,2.7,2.7,0,1,0-.08-5.39Z"/><rect class="cls-4" x="109.73" y="101.65" width="4.31" height="8.23"/><circle class="cls-16" cx="123.15" cy="125.25" r="2.7"/><circle class="cls-16" cx="100.69" cy="125.23" r="2.7"/><circle class="cls-16" cx="130.03" cy="108.94" r="2.7"/><path class="cls-17" d="M123.22,124.07a2.14,2.14,0,0,1-1.57-.68L111.89,113l-9.76,10.36a2.16,2.16,0,1,1-3.14-3l12.9-13.69,12.9,13.69a2.16,2.16,0,0,1-1.57,3.64Z"/><path class="cls-17" d="M111.89,112a2.16,2.16,0,0,1-.5-4.26l18.34-4.33a2.16,2.16,0,0,1,1,4.2L112.38,112A2.05,2.05,0,0,1,111.89,112Z"/><path class="cls-17" d="M111.89,112a2.14,2.14,0,0,1-.5-.06l-18.33-4.33a2.16,2.16,0,1,1,1-4.2l18.33,4.33a2.16,2.16,0,0,1-.49,4.26Z"/><path class="cls-16" d="M93.43,101.05c-3.47-2-3.05-3.8.94-4l9.13-.57c4-.25,10.52-.27,14.51-.06l12.68.69c4,.21,4.41,2,.94,4l-12.78,7.29a14.17,14.17,0,0,1-12.63,0Z"/><g class="cls-18"><path class="cls-1" d="M111.48,96.23c2.38,0,4.72,0,6.53.14l12.68.69c4,.21,4.41,2,.94,4l-12.78,7.29a14.13,14.13,0,0,1-12.63,0l-12.79-7.29c-3.47-2-3.05-3.8.94-4l9.13-.57c2.18-.13,5.11-.2,8-.2m0-.64c-3,0-5.92.07-8,.2l-9.13.57c-2.86.18-3.67,1.11-3.85,1.87s.14,2,2.64,3.38l12.78,7.29a14.78,14.78,0,0,0,13.26,0L132,101.61c2.5-1.43,2.81-2.62,2.63-3.37s-1-1.67-3.86-1.82l-12.67-.69c-1.76-.09-4.09-.14-6.57-.14Z"/></g><path class="cls-16" d="M114.73,73.24a23.82,23.82,0,0,1,8.93-10.38l6.15-3.51c3.48-2,6-.35,5.54,3.63l-1.46,13.47c-.43,4-.32,8.8.26,10.73s-1.8,5.11-5.28,7.09l-10.39,5.93c-3.47,2-6.75.36-7.28-3.6a55.35,55.35,0,0,1-.43-8.81C111.05,82.74,114.73,73.24,114.73,73.24Z"/><g class="cls-18"><path class="cls-1" d="M132.53,58.51c1.95,0,3.12,1.64,2.82,4.47l-1.46,13.47c-.43,4-.32,8.8.26,10.73s-1.8,5.11-5.28,7.09l-10.39,5.93a5.87,5.87,0,0,1-2.91.85c-2.23,0-4-1.64-4.37-4.45a55.35,55.35,0,0,1-.43-8.81c.28-5.05,4-14.55,4-14.55a23.82,23.82,0,0,1,8.93-10.38l6.15-3.51a5.67,5.67,0,0,1,2.72-.84m0-.64h0a6.19,6.19,0,0,0-3,.92l-6.15,3.51A24.47,24.47,0,0,0,114.13,73c-.15.39-3.72,9.66-4,14.74a56.41,56.41,0,0,0,.43,8.93c.41,3,2.38,5,5,5a6.51,6.51,0,0,0,3.23-.93l10.39-5.93c3.79-2.16,6.24-5.6,5.57-7.84-.55-1.83-.65-6.62-.24-10.47L136,63.05a5.22,5.22,0,0,0-1-4.13,3.23,3.23,0,0,0-2.48-1.05Z"/></g><path class="cls-16" d="M124.28,46.9l5.14-2.84c2.23-1.23,5.39-.37,4.41,1l-.29.37c-2.46,3.16-2.49,6.73-.09,7.92h0a3.38,3.38,0,0,1-1.74,3l-7.27,4c-2.24,1.24-4-3.4-4-6V53.16A6.85,6.85,0,0,1,124.28,46.9Z"/><g class="cls-18"><path class="cls-1" d="M131.79,43.47c1.52,0,2.69.69,2,1.62l-.29.37c-2.46,3.16-2.49,6.73-.09,7.92a3.38,3.38,0,0,1-1.74,3l-7.27,4a1.52,1.52,0,0,1-.74.21c-1.88,0-3.27-3.9-3.29-6.17V53.16a6.85,6.85,0,0,1,3.87-6.26l5.14-2.84a5,5,0,0,1,2.37-.59m0-.64h0a5.63,5.63,0,0,0-2.68.67L124,46.34a7.53,7.53,0,0,0-4.2,6.82v1.27c0,2.32,1.44,6.81,3.93,6.81a2.16,2.16,0,0,0,1-.29l7.27-4a4,4,0,0,0,2.07-3.57V53l-.35-.17a2.49,2.49,0,0,1-1.34-1.75,6.61,6.61,0,0,1,1.64-5.2l.29-.38a1.38,1.38,0,0,0,.17-1.5,3,3,0,0,0-2.71-1.15Z"/></g><path class="cls-19" d="M124.69,58.81a5.81,5.81,0,0,1-1.19-3.16l-.07-2.28a6.22,6.22,0,0,1,3.51-5.68L131,45.45"/><path class="cls-17" d="M126.78,63.94c0,.78.56,1.11,1.25.74l2-1.09a2.61,2.61,0,0,0,1.25-2.09V54.37c0-.78-.56-1.1-1.23-.72L128,54.81a2.68,2.68,0,0,0-1.24,2.11Z"/><path class="cls-17" d="M125.5,100.81a1,1,0,0,0,1.6,1l1.33-.71a3.37,3.37,0,0,0,1.6-2.68V92.05a1,1,0,0,0-1.59-.93l-1.36.77a3.44,3.44,0,0,0-1.58,2.71Z"/><path class="cls-17" d="M99.08,104.86c0,2-1,3.09-2.27,2.42s-2.26-2.85-2.26-4.85V92.55c0-2,1-3.06,2.26-2.36s2.27,2.91,2.27,4.91Z"/><path class="cls-16" d="M84.38,87c-.68.39-.67,1,0,1.4L101.47,98a2.79,2.79,0,0,0,2.47,0l3.7-2.11a.73.73,0,0,0,0-1.39L90.54,84.93a2.73,2.73,0,0,0-2.46,0Z"/><g class="cls-18"><path class="cls-1" d="M89.32,84.64a2.53,2.53,0,0,1,1.22.29l17.09,9.57a.73.73,0,0,1,0,1.39L103.94,98a2.68,2.68,0,0,1-1.25.29,2.53,2.53,0,0,1-1.22-.28L84.39,88.44c-.68-.38-.69-1,0-1.4l3.7-2.1a2.5,2.5,0,0,1,1.24-.3m0-.64a3.21,3.21,0,0,0-1.56.38l-3.7,2.11a1.36,1.36,0,0,0,0,2.51l17.08,9.57a3.27,3.27,0,0,0,1.54.36,3.21,3.21,0,0,0,1.56-.37l3.7-2.11a1.36,1.36,0,0,0,0-2.51L90.86,84.37A3.16,3.16,0,0,0,89.32,84Z"/></g><path class="cls-13" d="M78.28,117.07c.8-.61,3.45-.26,4.57-.84,1.38-.71-.18-.13,2.2-1.44,1-.58,3.51,2.79,5.51,0,1.42-1.94,1.93-2.12,2.66-1.8a3.45,3.45,0,0,1,.65.55l1.8,5.51S91.1,122,89,122.4a18.9,18.9,0,0,1-10-1.24c-1.15-.56-1.77-1.54-1.57-2.29A3.61,3.61,0,0,1,78.28,117.07Z"/><polygon class="cls-1" points="22.94 88.91 38.82 73.06 52.36 76.53 36.48 92.37 22.94 88.91"/><polygon class="cls-6" points="34.94 58.81 19.04 74.65 22.95 88.97 38.84 73.13 34.94 58.81"/></svg>