<svg id="Layer_1" data-name="Layer 1" xmlns="http://www.w3.org/2000/svg" viewBox="0 0 86.68 60.5"><defs><style>.cls-1,.cls-2{fill:none;stroke:#879eff;stroke-linejoin:round;stroke-width:4px;}.cls-2{stroke-linecap:round;}.cls-3{font-size:13.71px;fill:#879eff;font-family:Montserrat-Black, Montserrat;}</style></defs><title>ikony</title><path class="cls-1" d="M22.94,35.54V56.88H35.26V46.32a18.5,18.5,0,0,0,3.27.3H58.78a18.47,18.47,0,0,0,3.26-.3V56.88H74.37v-29A18.79,18.79,0,0,0,55.63,9.15H37.8"/><line class="cls-2" x1="35.26" y1="49.06" x2="35.26" y2="40"/><line class="cls-2" x1="62.04" y1="49.06" x2="62.04" y2="40"/><path class="cls-1" d="M24.58,9.15H18.17a9.69,9.69,0,0,0-9.66,9.66v31.3h6.3V36H28.88"/><path class="cls-1" d="M22,29.43h5.21A12.36,12.36,0,0,0,39.5,17.11V14.56A12.36,12.36,0,0,0,27.19,2.24H20.84"/><line class="cls-1" x1="74.37" y1="26.37" x2="85.09" y2="26.37"/><text class="cls-3" transform="translate(40.42 33.31)">PHP</text></svg>