<svg id="Layer_1" data-name="Layer 1" xmlns="http://www.w3.org/2000/svg" viewBox="0 0 86.68 52"><defs><style>.cls-1{fill:none;stroke:#0039ff;stroke-linejoin:round;stroke-width:4px;}.cls-1,.cls-2{opacity:0.4;}.cls-3{fill:#0039ff;}</style></defs><title>ikony</title><polyline class="cls-1" points="25.35 50.02 4 28.67 25.35 7.31"/><polyline class="cls-1" points="61.63 7.31 82.98 28.67 61.63 50.02"/><path class="cls-1" d="M43.49,46.38A14.66,14.66,0,0,1,28.85,31.74a14.43,14.43,0,0,1,2.27-7.82L43.49,2.56,55.86,23.92a14.43,14.43,0,0,1,2.27,7.82A14.62,14.62,0,0,1,43.49,46.38Z"/><g class="cls-2"><path class="cls-3" d="M43.49,41.72a8.88,8.88,0,0,1-6.21-2.49.75.75,0,0,1,0-1.11.73.73,0,0,1,1.11,0,7.38,7.38,0,0,0,5.16,2.05.75.75,0,0,1,.77.78A.8.8,0,0,1,43.49,41.72Z"/><path class="cls-3" d="M50.09,30c-2.66,0-4.49,2.66-6.6,3.16,2,.5,3.94,3.16,6.6,3.16a3.17,3.17,0,1,0,0-6.32Z"/><path class="cls-3" d="M33.45,33.18a3.29,3.29,0,0,0,3.44,3.16c2.66,0,4.49-2.66,6.6-3.16-2.05-.5-3.94-3.16-6.6-3.16A3.3,3.3,0,0,0,33.45,33.18Z"/></g></svg>