<svg id="Layer_1" data-name="Layer 1" xmlns="http://www.w3.org/2000/svg" viewBox="0 0 85 55.5"><defs><style>.cls-1{fill:none;stroke:#879eff;stroke-linejoin:round;stroke-width:4px;}</style></defs><title>ikony</title><line class="cls-1" x1="5.02" y1="10.42" x2="30.44" y2="10.42"/><line class="cls-1" x1="5.02" y1="18.58" x2="26.29" y2="18.58"/><line class="cls-1" x1="5.02" y1="26.75" x2="15.19" y2="26.75"/><line class="cls-1" x1="5.02" y1="34.92" x2="26.29" y2="34.92"/><line class="cls-1" x1="5.02" y1="43.08" x2="31.69" y2="43.08"/><line class="cls-1" x1="5.02" y1="51.25" x2="46.61" y2="51.25"/><circle class="cls-1" cx="52.48" cy="24.18" r="19.44"/><line class="cls-1" x1="79.98" y1="51.68" x2="67.58" y2="39.28"/><rect class="cls-1" x="47.93" y="17.24" width="8.65" height="13.88" rx="4" ry="4"/><line class="cls-1" x1="42.57" y1="24.18" x2="48.61" y2="24.18"/><line class="cls-1" x1="55.9" y1="24.18" x2="61.95" y2="24.18"/><line class="cls-1" x1="43.46" y1="15.6" x2="47.73" y2="19.87"/><line class="cls-1" x1="56.79" y1="19.87" x2="61.06" y2="15.6"/><line class="cls-1" x1="61.06" y1="32.76" x2="56.79" y2="28.48"/><line class="cls-1" x1="47.73" y1="28.48" x2="43.46" y2="32.76"/></svg>